<?xml version="1.0" encoding="UTF-8" standalone="no"?>
<!-- Created with Inkscape (http://www.inkscape.org/) -->

<svg
   width="210mm"
   height="297mm"
   viewBox="0 0 210 297"
   version="1.1"
   id="svg1"
   inkscape:version="1.3.2 (091e20e, 2023-11-25, custom)"
   sodipodi:docname="logocafe.svg"
   xmlns:inkscape="http://www.inkscape.org/namespaces/inkscape"
   xmlns:sodipodi="http://sodipodi.sourceforge.net/DTD/sodipodi-0.dtd"
   xmlns="http://www.w3.org/2000/svg"
   xmlns:svg="http://www.w3.org/2000/svg">
  <sodipodi:namedview
     id="namedview1"
     pagecolor="#ffffff"
     bordercolor="#000000"
     borderopacity="0.25"
     inkscape:showpageshadow="2"
     inkscape:pageopacity="0.0"
     inkscape:pagecheckerboard="0"
     inkscape:deskcolor="#d1d1d1"
     inkscape:document-units="mm"
     inkscape:zoom="5.8511223"
     inkscape:cx="74.08835"
     inkscape:cy="55.288538"
     inkscape:window-width="1920"
     inkscape:window-height="1017"
     inkscape:window-x="-8"
     inkscape:window-y="-8"
     inkscape:window-maximized="1"
     inkscape:current-layer="svg1" />
  <defs
     id="defs1">
    <rect
       x="278.92085"
       y="509.98763"
       width="2.7345181"
       height="12.305332"
       id="rect2" />
  </defs>
  <g
     inkscape:label="Слой 1"
     inkscape:groupmode="layer"
     id="layer1"
     style="fill:#d4aa00">
    <path
       style="fill:#d4aa00;stroke:#000000;stroke-width:1.00429"
       d="m 24.941089,53.953324 c -0.01458,-10.365015 -0.0023,-9.830884 -0.247048,-10.73512 -0.354085,-1.308143 -1.125746,-2.196479 -2.08032,-2.394865 -0.3217,-0.06686 -0.866396,-0.02771 -1.160893,0.08343 -0.927886,0.350174 -1.644901,1.39827 -1.962928,2.869308 -0.198471,0.918027 -0.192532,0.653694 -0.217595,9.68581 l -0.02386,8.598696 -1.165346,-0.575 -1.165345,-0.575 0.01301,-9.155958 c 0.01441,-10.138794 -0.0064,-9.382969 0.290452,-10.564183 0.435171,-1.731756 1.387568,-3.057622 2.542155,-3.539021 0.783498,-0.326677 1.801274,-0.337947 2.524456,-0.02795 0.656398,0.281365 1.294459,0.978765 1.780004,1.945542 0.10695,0.212952 0.582258,1.35667 1.056238,2.541596 0.47398,1.184926 0.874418,2.167693 0.889863,2.183927 0.01544,0.01624 0.381925,-0.752849 0.814403,-1.709074 1.44877,-3.20329 1.718276,-3.696932 2.372232,-4.345113 0.521648,-0.517041 1.055759,-0.756814 1.840962,-0.826443 2.699213,-0.239356 4.040568,1.654604 4.292333,6.060667 0.02611,0.456876 0.04297,4.491283 0.04335,10.371941 l 6.2e-4,9.624222 H 34.20284 33.027852 l -7.3e-4,-8.641504 c -4.04e-4,-4.779935 -0.01893,-9.061552 -0.04146,-9.581495 -0.08414,-1.941667 -0.409384,-2.981903 -1.17552,-3.759751 -0.497529,-0.505134 -0.940957,-0.702503 -1.580894,-0.703653 -1.376312,-0.0025 -2.37598,1.223828 -2.785173,3.416596 -0.07081,0.379429 -0.07655,1.021116 -0.08815,9.837856 l -0.0124,9.431951 H 26.148999 24.95448 Z"
       id="path2"
       transform="scale(0.26458333)" />
    <path
       style="fill:#d4aa00;stroke:#000000;stroke-width:1.00429"
       d="m 50.287294,64.198211 c -2.163737,-0.210246 -3.961104,-1.279683 -5.471127,-3.255332 -1.636831,-2.14156 -2.582251,-4.75866 -2.906972,-8.047044 -0.07376,-0.746946 -0.0743,-3.249027 -8.62e-4,-3.973597 0.285189,-2.813714 0.950253,-4.962944 2.15511,-6.964476 1.812754,-3.011381 4.172885,-4.54848 6.995138,-4.555769 1.015604,-0.0026 1.804836,0.135748 2.627701,0.460698 2.012807,0.794859 3.780512,2.705568 4.895396,5.291423 0.231149,0.536126 0.765911,2.094639 0.765911,2.232175 0,0.07316 -0.1031,0.08949 -1.271124,0.201317 -0.699118,0.06694 -1.334987,0.123596 -1.413042,0.125911 -0.140888,0.0042 -0.143142,0.0011 -0.310471,-0.423061 -1.148671,-2.91179 -3.05245,-4.508389 -5.37474,-4.50751 -2.074073,7.85e-4 -3.805889,1.174999 -5.084925,3.447705 -0.745421,1.32453 -1.219598,2.912473 -1.441593,4.827664 -0.101409,0.874874 -0.101423,2.780605 -2.8e-5,3.666613 0.322044,2.81407 1.33493,5.137704 2.879307,6.605343 1.434808,1.363514 3.234429,1.805023 5.094867,1.249948 0.404336,-0.120637 1.003245,-0.408116 1.36479,-0.655106 1.059747,-0.723969 1.990345,-1.997329 2.623474,-3.589767 0.2001,-0.503288 0.492437,-1.473627 0.590717,-1.960735 l 0.05509,-0.273026 0.876798,0.02783 c 0.482238,0.0153 1.071341,0.03968 1.309117,0.05416 l 0.432319,0.02634 -0.122384,0.582041 c -0.395038,1.878727 -0.89882,3.377858 -1.585704,4.718652 -1.385908,2.70529 -3.33116,4.26104 -5.777239,4.620451 -0.552345,0.08116 -1.439607,0.112427 -1.905521,0.06716 z"
       id="path7"
       transform="scale(0.26458333)" />
    <path
       style="fill:#d4aa00;stroke:#000000;stroke-width:1.42028"
       d="m 66.544985,54.548565 c 0.028,-9.664423 0.02079,-9.455095 0.380888,-11.060653 0.657594,-2.931997 2.287375,-5.199465 4.194216,-5.835291 1.632027,-0.54419 3.239789,-0.198984 4.460774,0.957785 l 0.399989,0.378952 -0.222438,0.264258 c -0.12234,0.145342 -0.529434,0.585194 -0.904653,0.977448 l -0.682215,0.713189 -0.29658,-0.21392 c -0.495224,-0.3572 -0.888144,-0.479571 -1.546379,-0.481602 -0.483725,-0.0015 -0.633466,0.02296 -0.951784,0.155417 -1.200458,0.499536 -1.949874,1.692401 -2.347282,3.73623 -0.08482,0.436223 -0.104048,1.125895 -0.127611,4.577185 l -0.02774,4.063574 h 1.062536 1.062536 v 1.268922 1.268923 h -1.057435 -1.057435 v 4.048467 4.048467 h -1.182538 -1.182537 z"
       id="path8"
       transform="scale(0.26458333)" />
    <path
       style="fill:#d4aa00;stroke:#000000;stroke-width:1.42028"
       d="m 83.282484,61.467214 c -0.835158,-1.241939 -1.264834,-2.808472 -1.40572,-5.125044 -0.03525,-0.579611 -0.06061,-4.571158 -0.06093,-9.588415 l -5.4e-4,-8.59544 h 1.178285 1.178285 v 8.084856 c 0,5.120572 0.02339,8.382832 0.06379,8.897564 0.137593,1.753038 0.556307,3.054484 1.239519,3.852662 0.250939,0.293166 0.893586,0.768714 1.168193,0.864442 0.316414,0.110302 0.242562,0.258662 -0.281099,0.564687 -0.541804,0.316628 -2.698816,1.422343 -2.774684,1.422343 -0.02813,0 -0.165421,-0.169945 -0.305098,-0.377655 z"
       id="path9"
       transform="scale(0.26458333)" />
  </g>
  <g
     id="g7"
     transform="matrix(0.20468062,0,0,0.2048066,-8.1786356,-14.967331)">
    <ellipse
       style="fill:none;stroke:#000000;stroke-width:6.219;stroke-dasharray:none;stroke-opacity:1"
       id="path1"
       cx="105.45129"
       cy="138.00911"
       rx="62.816605"
       ry="61.369587" />
    <ellipse
       style="fill:none;stroke:#000000;stroke-width:8.46408;stroke-dasharray:none;stroke-opacity:1"
       id="path3"
       cx="106.17477"
       cy="137.46649"
       rx="60.918259"
       ry="27.81777" />
    <text
       xml:space="preserve"
       style="font-style:normal;font-variant:normal;font-weight:normal;font-stretch:normal;font-size:50.9103px;font-family:'Bauhaus 93';-inkscape-font-specification:'Bauhaus 93, ';fill:#ffcc00;stroke:#000000;stroke-width:3.23768;stroke-dasharray:none;stroke-opacity:1"
       x="70.947472"
       y="127.77666"
       id="text3"
       transform="scale(0.80524855,1.2418526)"><tspan
         sodipodi:role="line"
         id="tspan3"
         style="fill:#ffcc00;stroke-width:3.23768;stroke-dasharray:none"
         x="70.947472"
         y="127.77666">MCFL</tspan></text>
    <path
       style="fill:#aa4400;stroke:#000000;stroke-width:32.1373;stroke-dasharray:none;stroke-opacity:1"
       d="M 381.46528,740.30172 C 312.9645,735.20999 248.91613,698.41314 210.76329,642.23059 200.1434,626.5921 182.6976,590.03164 184.83517,587.89407 c 0.38165,-0.38164 4.94104,2.17851 10.13198,5.68924 32.71082,22.1229 85.98976,38.60658 145.55956,45.03387 23.76883,2.56455 75.80359,2.91348 99.04708,0.66418 73.891,-7.1505 136.22302,-29.00567 170.05198,-59.62449 l 7.34816,-6.65087 -1,4.72318 c -0.55001,2.59775 -3.14462,10.56821 -5.76579,17.71214 -25.74073,70.15539 -87.37798,123.4882 -161.74717,139.9548 -14.25724,3.15679 -22.06886,4.1116 -45.11955,5.5149 -4.13596,0.2518 -13.98022,-0.0224 -21.87614,-0.6093 z"
       id="path4"
       transform="scale(0.26458333)" />
    <path
       style="fill:#aa4400;stroke:#000000;stroke-width:32.1373;stroke-dasharray:none;stroke-opacity:1"
       d="m 608.43028,458.37643 c -27.24656,-24.54584 -79.08679,-45.32009 -135.35865,-54.24311 -53.21257,-8.4379 -116.57259,-7.97269 -167.68679,1.23122 -42.305,7.61768 -82.33035,21.97207 -108.53642,38.92469 -5.41429,3.50248 -10.08722,6.12509 -10.3843,5.82801 -0.29708,-0.29708 1.33859,-5.09613 3.63483,-10.66455 27.64035,-67.02856 89.82409,-117.74433 162.4241,-132.46974 110.01142,-22.31353 219.55909,37.69104 257.90222,141.26558 2.74062,7.40307 4.79725,13.95751 4.5703,14.56542 -0.22694,0.60791 -3.18132,-1.38897 -6.56529,-4.43752 z"
       id="path5"
       transform="scale(0.26458333)" />
  </g>
  <path
     style="fill:#aa4400;stroke:#000000;stroke-width:32.1373;stroke-dasharray:none;stroke-opacity:1"
     d=""
     id="path6"
     transform="scale(0.26458333)" />
</svg>
